<?xml version="1.0" encoding="UTF-8" standalone="no"?>
<!DOCTYPE svg PUBLIC "-//W3C//DTD SVG 1.1//EN"
 "http://www.w3.org/Graphics/SVG/1.1/DTD/svg11.dtd">
<!-- Generated by graphviz version 2.40.1 (20161225.0304)
 -->
<!-- Title: public.systems Pages: 1 -->
<svg width="1473pt" height="1229pt"
 viewBox="0.00 0.00 1473.00 1229.00" xmlns="http://www.w3.org/2000/svg" xmlns:xlink="http://www.w3.org/1999/xlink">
<g id="graph0" class="graph" transform="scale(1 1) rotate(0) translate(4 1225)">
<title>public.systems</title>
<polygon fill="#ffffff" stroke="transparent" points="-4,4 -4,-1225 1469,-1225 1469,4 -4,4"/>
<!-- public.systems -->
<g id="node1" class="node">
<title>public.systems</title>
<polygon fill="#efefef" stroke="transparent" points="600,-772.5 600,-807.5 866,-807.5 866,-772.5 600,-772.5"/>
<polygon fill="none" stroke="#000000" points="600,-772.5 600,-807.5 866,-807.5 866,-772.5 600,-772.5"/>
<text text-anchor="start" x="610.2111" y="-785.3" font-family="Arial Bold" font-size="18.00" fill="#000000">public.systems</text>
<text text-anchor="start" x="728.2209" y="-785.3" font-family="Arial" font-size="14.00" fill="#000000">    </text>
<text text-anchor="start" x="762.4257" y="-785.3" font-family="Arial" font-size="14.00" fill="#666666">[BASE TABLE]</text>
<polygon fill="none" stroke="#000000" points="600,-742.5 600,-772.5 866,-772.5 866,-742.5 600,-742.5"/>
<text text-anchor="start" x="607" y="-753.9" font-family="Arial" font-size="14.00" fill="#000000">id </text>
<text text-anchor="start" x="621.7798" y="-753.9" font-family="Arial" font-size="14.00" fill="#666666">[integer]</text>
<polygon fill="none" stroke="#000000" points="600,-712.5 600,-742.5 866,-742.5 866,-712.5 600,-712.5"/>
<text text-anchor="start" x="607" y="-723.9" font-family="Arial" font-size="14.00" fill="#000000">created_at </text>
<text text-anchor="start" x="677.028" y="-723.9" font-family="Arial" font-size="14.00" fill="#666666">[timestamp with time zone]</text>
<polygon fill="none" stroke="#000000" points="600,-682.5 600,-712.5 866,-712.5 866,-682.5 600,-682.5"/>
<text text-anchor="start" x="607" y="-693.9" font-family="Arial" font-size="14.00" fill="#000000">updated_at </text>
<text text-anchor="start" x="680.9326" y="-693.9" font-family="Arial" font-size="14.00" fill="#666666">[timestamp with time zone]</text>
<polygon fill="none" stroke="#000000" points="600,-652.5 600,-682.5 866,-682.5 866,-652.5 600,-652.5"/>
<text text-anchor="start" x="607" y="-663.9" font-family="Arial" font-size="14.00" fill="#000000">deleted_at </text>
<text text-anchor="start" x="676.2566" y="-663.9" font-family="Arial" font-size="14.00" fill="#666666">[timestamp with time zone]</text>
<polygon fill="none" stroke="#000000" points="600,-622.5 600,-652.5 866,-652.5 866,-622.5 600,-622.5"/>
<text text-anchor="start" x="607" y="-633.9" font-family="Arial" font-size="14.00" fill="#000000">group_id </text>
<text text-anchor="start" x="665.3534" y="-633.9" font-family="Arial" font-size="14.00" fill="#666666">[text]</text>
<polygon fill="none" stroke="#000000" points="600,-592.5 600,-622.5 866,-622.5 866,-592.5 600,-592.5"/>
<text text-anchor="start" x="607" y="-603.9" font-family="Arial" font-size="14.00" fill="#000000">client_id </text>
<text text-anchor="start" x="662.2314" y="-603.9" font-family="Arial" font-size="14.00" fill="#666666">[text]</text>
<polygon fill="none" stroke="#000000" points="600,-562.5 600,-592.5 866,-592.5 866,-562.5 600,-562.5"/>
<text text-anchor="start" x="607" y="-573.9" font-family="Arial" font-size="14.00" fill="#000000">software_id </text>
<text text-anchor="start" x="682.4586" y="-573.9" font-family="Arial" font-size="14.00" fill="#666666">[text]</text>
<polygon fill="none" stroke="#000000" points="600,-532.5 600,-562.5 866,-562.5 866,-532.5 600,-532.5"/>
<text text-anchor="start" x="607" y="-543.9" font-family="Arial" font-size="14.00" fill="#000000">client_name </text>
<text text-anchor="start" x="686.3506" y="-543.9" font-family="Arial" font-size="14.00" fill="#666666">[text]</text>
<polygon fill="none" stroke="#000000" points="600,-502.5 600,-532.5 866,-532.5 866,-502.5 600,-502.5"/>
<text text-anchor="start" x="607" y="-513.9" font-family="Arial" font-size="14.00" fill="#000000">api_scope </text>
<text text-anchor="start" x="674.6928" y="-513.9" font-family="Arial" font-size="14.00" fill="#666666">[text]</text>
<polygon fill="none" stroke="#000000" points="600,-472.5 600,-502.5 866,-502.5 866,-472.5 600,-472.5"/>
<text text-anchor="start" x="607" y="-483.9" font-family="Arial" font-size="14.00" fill="#000000">g_id </text>
<text text-anchor="start" x="637.345" y="-483.9" font-family="Arial" font-size="14.00" fill="#666666">[integer]</text>
<polygon fill="none" stroke="#000000" points="600,-442.5 600,-472.5 866,-472.5 866,-442.5 600,-442.5"/>
<text text-anchor="start" x="606.5842" y="-453.9" font-family="Arial" font-size="14.00" fill="#000000">last_token_at </text>
<text text-anchor="start" x="693.7314" y="-453.9" font-family="Arial" font-size="14.00" fill="#666666">[timestamp with time zone]</text>
<polygon fill="none" stroke="#000000" points="600,-412.5 600,-442.5 866,-442.5 866,-412.5 600,-412.5"/>
<text text-anchor="start" x="607" y="-423.9" font-family="Arial" font-size="14.00" fill="#000000">x_data </text>
<text text-anchor="start" x="652.9116" y="-423.9" font-family="Arial" font-size="14.00" fill="#666666">[text]</text>
<polygon fill="none" stroke="#000000" stroke-width="3" points="598.5,-411.5 598.5,-809.5 867.5,-809.5 867.5,-411.5 598.5,-411.5"/>
</g>
<!-- public.groups -->
<g id="node5" class="node">
<title>public.groups</title>
<polygon fill="#efefef" stroke="transparent" points="591,-252.5 591,-287.5 874,-287.5 874,-252.5 591,-252.5"/>
<polygon fill="none" stroke="#000000" points="591,-252.5 591,-287.5 874,-287.5 874,-252.5 591,-252.5"/>
<text text-anchor="start" x="615.2029" y="-265.3" font-family="Arial Bold" font-size="18.00" fill="#000000">public.groups</text>
<text text-anchor="start" x="722.2291" y="-265.3" font-family="Arial" font-size="14.00" fill="#000000">    </text>
<text text-anchor="start" x="756.4339" y="-265.3" font-family="Arial" font-size="14.00" fill="#666666">[BASE TABLE]</text>
<polygon fill="none" stroke="#000000" points="591,-222.5 591,-252.5 874,-252.5 874,-222.5 591,-222.5"/>
<text text-anchor="start" x="598" y="-233.9" font-family="Arial" font-size="14.00" fill="#000000">id    </text>
<text text-anchor="start" x="643.094" y="-233.9" font-family="Arial" font-size="14.00" fill="#666666">[integer]</text>
<polygon fill="none" stroke="#000000" points="591,-192.5 591,-222.5 874,-222.5 874,-192.5 591,-192.5"/>
<text text-anchor="start" x="598" y="-203.9" font-family="Arial" font-size="14.00" fill="#000000">created_at    </text>
<text text-anchor="start" x="698.3422" y="-203.9" font-family="Arial" font-size="14.00" fill="#666666">[timestamp with time zone]</text>
<polygon fill="none" stroke="#000000" points="591,-162.5 591,-192.5 874,-192.5 874,-162.5 591,-162.5"/>
<text text-anchor="start" x="597.5344" y="-173.9" font-family="Arial" font-size="14.00" fill="#000000">updated_at    </text>
<text text-anchor="start" x="701.7812" y="-173.9" font-family="Arial" font-size="14.00" fill="#666666">[timestamp with time zone]</text>
<polygon fill="none" stroke="#000000" points="591,-132.5 591,-162.5 874,-162.5 874,-132.5 591,-132.5"/>
<text text-anchor="start" x="598" y="-143.9" font-family="Arial" font-size="14.00" fill="#000000">deleted_at    </text>
<text text-anchor="start" x="697.5708" y="-143.9" font-family="Arial" font-size="14.00" fill="#666666">[timestamp with time zone]</text>
<polygon fill="none" stroke="#000000" points="591,-102.5 591,-132.5 874,-132.5 874,-102.5 591,-102.5"/>
<text text-anchor="start" x="598" y="-113.9" font-family="Arial" font-size="14.00" fill="#000000">group_id    </text>
<text text-anchor="start" x="686.6676" y="-113.9" font-family="Arial" font-size="14.00" fill="#666666">[text]</text>
<polygon fill="none" stroke="#000000" points="591,-72.5 591,-102.5 874,-102.5 874,-72.5 591,-72.5"/>
<text text-anchor="start" x="598" y="-83.9" font-family="Arial" font-size="14.00" fill="#000000">x_data    </text>
<text text-anchor="start" x="674.2258" y="-83.9" font-family="Arial" font-size="14.00" fill="#666666">[text]</text>
<polygon fill="none" stroke="#000000" points="591,-42.5 591,-72.5 874,-72.5 874,-42.5 591,-42.5"/>
<text text-anchor="start" x="598" y="-53.9" font-family="Arial" font-size="14.00" fill="#000000">data    </text>
<text text-anchor="start" x="659.4432" y="-53.9" font-family="Arial" font-size="14.00" fill="#666666">[jsonb]</text>
</g>
<!-- public.systems&#45;&gt;public.groups -->
<g id="edge4" class="edge">
<title>public.systems:g_id&#45;&gt;public.groups:id</title>
<path fill="none" stroke="#000000" d="M590.0059,-486.4135C549.0178,-476.7166 567.0974,-404.5084 600,-367 680.9958,-274.6663 793.0042,-423.3337 874,-331 901.4036,-299.7605 915.5556,-237.5 874,-237.5"/>
<polygon fill="#000000" stroke="#000000" points="590.0586,-486.4192 599.5136,-491.9736 595.0293,-486.9596 600,-487.5 600,-487.5 600,-487.5 595.0293,-486.9596 600.4864,-483.0264 590.0586,-486.4192 590.0586,-486.4192"/>
<text text-anchor="start" x="152.1685" y="-497.5" font-family="Arial" font-size="10.00" fill="#000000">FOREIGN KEY (g_id) REFERENCES groups(id) ON UPDATE RESTRICT ON DELETE RESTRICT</text>
</g>
<!-- public.encryption_keys -->
<g id="node2" class="node">
<title>public.encryption_keys</title>
<polygon fill="#efefef" stroke="transparent" points="164,-1142.5 164,-1177.5 487,-1177.5 487,-1142.5 164,-1142.5"/>
<polygon fill="none" stroke="#000000" points="164,-1142.5 164,-1177.5 487,-1177.5 487,-1142.5 164,-1142.5"/>
<text text-anchor="start" x="170.6954" y="-1155.3" font-family="Arial Bold" font-size="18.00" fill="#000000">public.encryption_keys</text>
<text text-anchor="start" x="352.7366" y="-1155.3" font-family="Arial" font-size="14.00" fill="#000000">    </text>
<text text-anchor="start" x="386.9414" y="-1155.3" font-family="Arial" font-size="14.00" fill="#666666">[BASE TABLE]</text>
<polygon fill="none" stroke="#000000" points="164,-1112.5 164,-1142.5 487,-1142.5 487,-1112.5 164,-1112.5"/>
<text text-anchor="start" x="171" y="-1123.9" font-family="Arial" font-size="14.00" fill="#000000">id    </text>
<text text-anchor="start" x="216.094" y="-1123.9" font-family="Arial" font-size="14.00" fill="#666666">[integer]</text>
<polygon fill="none" stroke="#000000" points="164,-1082.5 164,-1112.5 487,-1112.5 487,-1082.5 164,-1082.5"/>
<text text-anchor="start" x="171" y="-1093.9" font-family="Arial" font-size="14.00" fill="#000000">created_at    </text>
<text text-anchor="start" x="271.3422" y="-1093.9" font-family="Arial" font-size="14.00" fill="#666666">[timestamp with time zone]</text>
<polygon fill="none" stroke="#000000" points="164,-1052.5 164,-1082.5 487,-1082.5 487,-1052.5 164,-1052.5"/>
<text text-anchor="start" x="171" y="-1063.9" font-family="Arial" font-size="14.00" fill="#000000">updated_at    </text>
<text text-anchor="start" x="275.2468" y="-1063.9" font-family="Arial" font-size="14.00" fill="#666666">[timestamp with time zone]</text>
<polygon fill="none" stroke="#000000" points="164,-1022.5 164,-1052.5 487,-1052.5 487,-1022.5 164,-1022.5"/>
<text text-anchor="start" x="171" y="-1033.9" font-family="Arial" font-size="14.00" fill="#000000">deleted_at    </text>
<text text-anchor="start" x="270.5708" y="-1033.9" font-family="Arial" font-size="14.00" fill="#666666">[timestamp with time zone]</text>
<polygon fill="none" stroke="#000000" points="164,-992.5 164,-1022.5 487,-1022.5 487,-992.5 164,-992.5"/>
<text text-anchor="start" x="171" y="-1003.9" font-family="Arial" font-size="14.00" fill="#000000">body    </text>
<text text-anchor="start" x="235.5526" y="-1003.9" font-family="Arial" font-size="14.00" fill="#666666">[text]</text>
<polygon fill="none" stroke="#000000" points="164,-962.5 164,-992.5 487,-992.5 487,-962.5 164,-962.5"/>
<text text-anchor="start" x="171" y="-973.9" font-family="Arial" font-size="14.00" fill="#000000">system_id    </text>
<text text-anchor="start" x="268.2104" y="-973.9" font-family="Arial" font-size="14.00" fill="#666666">[integer]</text>
<polygon fill="none" stroke="#000000" points="164,-932.5 164,-962.5 487,-962.5 487,-932.5 164,-932.5"/>
<text text-anchor="start" x="171" y="-943.9" font-family="Arial" font-size="14.00" fill="#000000">uuid    </text>
<text text-anchor="start" x="231.6592" y="-943.9" font-family="Arial" font-size="14.00" fill="#666666">[text]</text>
</g>
<!-- public.encryption_keys&#45;&gt;public.systems -->
<g id="edge1" class="edge">
<title>public.encryption_keys:system_id&#45;&gt;public.systems:id</title>
<path fill="none" stroke="#000000" d="M496.7225,-975.0293C542.5483,-950.8594 548.4742,-757.5 600,-757.5"/>
<polygon fill="#000000" stroke="#000000" points="496.692,-975.037 485.8916,-973.1386 491.846,-976.2685 487,-977.5 487,-977.5 487,-977.5 491.846,-976.2685 488.1084,-981.8614 496.692,-975.037 496.692,-975.037"/>
<text text-anchor="start" x="7.0635" y="-987.5" font-family="Arial" font-size="10.00" fill="#000000">FOREIGN KEY (system_id) REFERENCES systems(id) ON UPDATE RESTRICT ON DELETE RESTRICT</text>
</g>
<!-- public.secrets -->
<g id="node3" class="node">
<title>public.secrets</title>
<polygon fill="#efefef" stroke="transparent" points="591,-1127.5 591,-1162.5 874,-1162.5 874,-1127.5 591,-1127.5"/>
<polygon fill="none" stroke="#000000" points="591,-1127.5 591,-1162.5 874,-1162.5 874,-1127.5 591,-1127.5"/>
<text text-anchor="start" x="613.708" y="-1140.3" font-family="Arial Bold" font-size="18.00" fill="#000000">public.secrets</text>
<text text-anchor="start" x="723.724" y="-1140.3" font-family="Arial" font-size="14.00" fill="#000000">    </text>
<text text-anchor="start" x="757.9288" y="-1140.3" font-family="Arial" font-size="14.00" fill="#666666">[BASE TABLE]</text>
<polygon fill="none" stroke="#000000" points="591,-1097.5 591,-1127.5 874,-1127.5 874,-1097.5 591,-1097.5"/>
<text text-anchor="start" x="598" y="-1108.9" font-family="Arial" font-size="14.00" fill="#000000">id    </text>
<text text-anchor="start" x="643.094" y="-1108.9" font-family="Arial" font-size="14.00" fill="#666666">[integer]</text>
<polygon fill="none" stroke="#000000" points="591,-1067.5 591,-1097.5 874,-1097.5 874,-1067.5 591,-1067.5"/>
<text text-anchor="start" x="598" y="-1078.9" font-family="Arial" font-size="14.00" fill="#000000">created_at    </text>
<text text-anchor="start" x="698.3422" y="-1078.9" font-family="Arial" font-size="14.00" fill="#666666">[timestamp with time zone]</text>
<polygon fill="none" stroke="#000000" points="591,-1037.5 591,-1067.5 874,-1067.5 874,-1037.5 591,-1037.5"/>
<text text-anchor="start" x="597.5344" y="-1048.9" font-family="Arial" font-size="14.00" fill="#000000">updated_at    </text>
<text text-anchor="start" x="701.7812" y="-1048.9" font-family="Arial" font-size="14.00" fill="#666666">[timestamp with time zone]</text>
<polygon fill="none" stroke="#000000" points="591,-1007.5 591,-1037.5 874,-1037.5 874,-1007.5 591,-1007.5"/>
<text text-anchor="start" x="598" y="-1018.9" font-family="Arial" font-size="14.00" fill="#000000">deleted_at    </text>
<text text-anchor="start" x="697.5708" y="-1018.9" font-family="Arial" font-size="14.00" fill="#666666">[timestamp with time zone]</text>
<polygon fill="none" stroke="#000000" points="591,-977.5 591,-1007.5 874,-1007.5 874,-977.5 591,-977.5"/>
<text text-anchor="start" x="598" y="-988.9" font-family="Arial" font-size="14.00" fill="#000000">hash    </text>
<text text-anchor="start" x="662.5526" y="-988.9" font-family="Arial" font-size="14.00" fill="#666666">[text]</text>
<polygon fill="none" stroke="#000000" points="591,-947.5 591,-977.5 874,-977.5 874,-947.5 591,-947.5"/>
<text text-anchor="start" x="598" y="-958.9" font-family="Arial" font-size="14.00" fill="#000000">system_id    </text>
<text text-anchor="start" x="695.2104" y="-958.9" font-family="Arial" font-size="14.00" fill="#666666">[integer]</text>
</g>
<!-- public.secrets&#45;&gt;public.systems -->
<g id="edge2" class="edge">
<title>public.secrets:system_id&#45;&gt;public.systems:id</title>
<path fill="none" stroke="#000000" d="M732.2505,-937.3538C723.0458,-879.3227 631.6129,-914.8672 600,-854 580.2318,-815.9385 557.1111,-757.5 600,-757.5"/>
<polygon fill="#000000" stroke="#000000" points="732.2632,-937.5272 728.5122,-947.8316 732.6316,-942.5136 733,-947.5 733,-947.5 733,-947.5 732.6316,-942.5136 737.4878,-947.1684 732.2632,-937.5272 732.2632,-937.5272"/>
<text text-anchor="start" x="618.3135" y="-931.5" font-family="Arial" font-size="10.00" fill="#000000">FOREIGN KEY (system_id) REFERENCES systems(id) ON UPDATE RESTRICT ON DELETE RESTRICT</text>
</g>
<!-- public.ips -->
<g id="node4" class="node">
<title>public.ips</title>
<polygon fill="#efefef" stroke="transparent" points="978,-1127.5 978,-1162.5 1261,-1162.5 1261,-1127.5 978,-1127.5"/>
<polygon fill="none" stroke="#000000" points="978,-1127.5 978,-1162.5 1261,-1162.5 1261,-1127.5 978,-1127.5"/>
<text text-anchor="start" x="1018.2112" y="-1140.3" font-family="Arial Bold" font-size="18.00" fill="#000000">public.ips</text>
<text text-anchor="start" x="1093.2208" y="-1140.3" font-family="Arial" font-size="14.00" fill="#000000">    </text>
<text text-anchor="start" x="1127.4256" y="-1140.3" font-family="Arial" font-size="14.00" fill="#666666">[BASE TABLE]</text>
<polygon fill="none" stroke="#000000" points="978,-1097.5 978,-1127.5 1261,-1127.5 1261,-1097.5 978,-1097.5"/>
<text text-anchor="start" x="985" y="-1108.9" font-family="Arial" font-size="14.00" fill="#000000">id    </text>
<text text-anchor="start" x="1030.094" y="-1108.9" font-family="Arial" font-size="14.00" fill="#666666">[integer]</text>
<polygon fill="none" stroke="#000000" points="978,-1067.5 978,-1097.5 1261,-1097.5 1261,-1067.5 978,-1067.5"/>
<text text-anchor="start" x="985" y="-1078.9" font-family="Arial" font-size="14.00" fill="#000000">created_at    </text>
<text text-anchor="start" x="1085.3422" y="-1078.9" font-family="Arial" font-size="14.00" fill="#666666">[timestamp with time zone]</text>
<polygon fill="none" stroke="#000000" points="978,-1037.5 978,-1067.5 1261,-1067.5 1261,-1037.5 978,-1037.5"/>
<text text-anchor="start" x="984.5344" y="-1048.9" font-family="Arial" font-size="14.00" fill="#000000">updated_at    </text>
<text text-anchor="start" x="1088.7812" y="-1048.9" font-family="Arial" font-size="14.00" fill="#666666">[timestamp with time zone]</text>
<polygon fill="none" stroke="#000000" points="978,-1007.5 978,-1037.5 1261,-1037.5 1261,-1007.5 978,-1007.5"/>
<text text-anchor="start" x="985" y="-1018.9" font-family="Arial" font-size="14.00" fill="#000000">deleted_at    </text>
<text text-anchor="start" x="1084.5708" y="-1018.9" font-family="Arial" font-size="14.00" fill="#666666">[timestamp with time zone]</text>
<polygon fill="none" stroke="#000000" points="978,-977.5 978,-1007.5 1261,-1007.5 1261,-977.5 978,-977.5"/>
<text text-anchor="start" x="985" y="-988.9" font-family="Arial" font-size="14.00" fill="#000000">address    </text>
<text text-anchor="start" x="1068.9958" y="-988.9" font-family="Arial" font-size="14.00" fill="#666666">[inet]</text>
<polygon fill="none" stroke="#000000" points="978,-947.5 978,-977.5 1261,-977.5 1261,-947.5 978,-947.5"/>
<text text-anchor="start" x="985" y="-958.9" font-family="Arial" font-size="14.00" fill="#000000">system_id    </text>
<text text-anchor="start" x="1082.2104" y="-958.9" font-family="Arial" font-size="14.00" fill="#666666">[integer]</text>
</g>
<!-- public.ips&#45;&gt;public.systems -->
<g id="edge3" class="edge">
<title>public.ips:system_id&#45;&gt;public.systems:id</title>
<path fill="none" stroke="#000000" d="M968.2113,-959.908C924.8099,-936.1774 914.4639,-757.5 866,-757.5"/>
<polygon fill="#000000" stroke="#000000" points="968.3331,-959.9402 976.8481,-966.8501 973.1666,-961.2201 978,-962.5 978,-962.5 978,-962.5 973.1666,-961.2201 979.1519,-958.1499 968.3331,-959.9402 968.3331,-959.9402"/>
<text text-anchor="start" x="985.0635" y="-972.5" font-family="Arial" font-size="10.00" fill="#000000">FOREIGN KEY (system_id) REFERENCES systems(id) ON UPDATE RESTRICT ON DELETE RESTRICT</text>
</g>
</g>
</svg>
