<?xml version="1.0" encoding="UTF-8" standalone="no"?>
<!DOCTYPE svg PUBLIC "-//W3C//DTD SVG 1.1//EN"
 "http://www.w3.org/Graphics/SVG/1.1/DTD/svg11.dtd">
<!-- Generated by graphviz version 2.40.1 (20161225.0304)
 -->
<!-- Title: public.groups Pages: 1 -->
<svg width="803pt" height="862pt"
 viewBox="0.00 0.00 802.50 862.00" xmlns="http://www.w3.org/2000/svg" xmlns:xlink="http://www.w3.org/1999/xlink">
<g id="graph0" class="graph" transform="scale(1 1) rotate(0) translate(4 858)">
<title>public.groups</title>
<polygon fill="#ffffff" stroke="transparent" points="-4,4 -4,-858 798.5,-858 798.5,4 -4,4"/>
<!-- public.groups -->
<g id="node1" class="node">
<title>public.groups</title>
<polygon fill="#efefef" stroke="transparent" points="477,-255.5 477,-290.5 730,-290.5 730,-255.5 477,-255.5"/>
<polygon fill="none" stroke="#000000" points="477,-255.5 477,-290.5 730,-290.5 730,-255.5 477,-255.5"/>
<text text-anchor="start" x="486.2029" y="-268.3" font-family="Arial Bold" font-size="18.00" fill="#000000">public.groups</text>
<text text-anchor="start" x="593.2291" y="-268.3" font-family="Arial" font-size="14.00" fill="#000000">    </text>
<text text-anchor="start" x="627.4339" y="-268.3" font-family="Arial" font-size="14.00" fill="#666666">[BASE TABLE]</text>
<polygon fill="none" stroke="#000000" points="477,-225.5 477,-255.5 730,-255.5 730,-225.5 477,-225.5"/>
<text text-anchor="start" x="484" y="-236.9" font-family="Arial" font-size="14.00" fill="#000000">id </text>
<text text-anchor="start" x="498.7798" y="-236.9" font-family="Arial" font-size="14.00" fill="#666666">[integer]</text>
<polygon fill="none" stroke="#000000" points="477,-195.5 477,-225.5 730,-225.5 730,-195.5 477,-195.5"/>
<text text-anchor="start" x="484" y="-206.9" font-family="Arial" font-size="14.00" fill="#000000">created_at </text>
<text text-anchor="start" x="554.028" y="-206.9" font-family="Arial" font-size="14.00" fill="#666666">[timestamp with time zone]</text>
<polygon fill="none" stroke="#000000" points="477,-165.5 477,-195.5 730,-195.5 730,-165.5 477,-165.5"/>
<text text-anchor="start" x="483.6915" y="-176.9" font-family="Arial" font-size="14.00" fill="#000000">updated_at </text>
<text text-anchor="start" x="557.6241" y="-176.9" font-family="Arial" font-size="14.00" fill="#666666">[timestamp with time zone]</text>
<polygon fill="none" stroke="#000000" points="477,-135.5 477,-165.5 730,-165.5 730,-135.5 477,-135.5"/>
<text text-anchor="start" x="484" y="-146.9" font-family="Arial" font-size="14.00" fill="#000000">deleted_at </text>
<text text-anchor="start" x="553.2566" y="-146.9" font-family="Arial" font-size="14.00" fill="#666666">[timestamp with time zone]</text>
<polygon fill="none" stroke="#000000" points="477,-105.5 477,-135.5 730,-135.5 730,-105.5 477,-105.5"/>
<text text-anchor="start" x="484" y="-116.9" font-family="Arial" font-size="14.00" fill="#000000">group_id </text>
<text text-anchor="start" x="542.3534" y="-116.9" font-family="Arial" font-size="14.00" fill="#666666">[text]</text>
<polygon fill="none" stroke="#000000" points="477,-75.5 477,-105.5 730,-105.5 730,-75.5 477,-75.5"/>
<text text-anchor="start" x="484" y="-86.9" font-family="Arial" font-size="14.00" fill="#000000">x_data </text>
<text text-anchor="start" x="529.9116" y="-86.9" font-family="Arial" font-size="14.00" fill="#666666">[text]</text>
<polygon fill="none" stroke="#000000" points="477,-45.5 477,-75.5 730,-75.5 730,-45.5 477,-45.5"/>
<text text-anchor="start" x="484" y="-56.9" font-family="Arial" font-size="14.00" fill="#000000">data </text>
<text text-anchor="start" x="515.129" y="-56.9" font-family="Arial" font-size="14.00" fill="#666666">[jsonb]</text>
<polygon fill="none" stroke="#000000" stroke-width="3" points="475,-44.5 475,-292.5 731,-292.5 731,-44.5 475,-44.5"/>
</g>
<!-- public.systems -->
<g id="node2" class="node">
<title>public.systems</title>
<polygon fill="#efefef" stroke="transparent" points="455,-775.5 455,-810.5 752,-810.5 752,-775.5 455,-775.5"/>
<polygon fill="none" stroke="#000000" points="455,-775.5 455,-810.5 752,-810.5 752,-775.5 455,-775.5"/>
<text text-anchor="start" x="480.7111" y="-788.3" font-family="Arial Bold" font-size="18.00" fill="#000000">public.systems</text>
<text text-anchor="start" x="598.7209" y="-788.3" font-family="Arial" font-size="14.00" fill="#000000">    </text>
<text text-anchor="start" x="632.9257" y="-788.3" font-family="Arial" font-size="14.00" fill="#666666">[BASE TABLE]</text>
<polygon fill="none" stroke="#000000" points="455,-745.5 455,-775.5 752,-775.5 752,-745.5 455,-745.5"/>
<text text-anchor="start" x="462" y="-756.9" font-family="Arial" font-size="14.00" fill="#000000">id    </text>
<text text-anchor="start" x="507.094" y="-756.9" font-family="Arial" font-size="14.00" fill="#666666">[integer]</text>
<polygon fill="none" stroke="#000000" points="455,-715.5 455,-745.5 752,-745.5 752,-715.5 455,-715.5"/>
<text text-anchor="start" x="462" y="-726.9" font-family="Arial" font-size="14.00" fill="#000000">created_at    </text>
<text text-anchor="start" x="562.3422" y="-726.9" font-family="Arial" font-size="14.00" fill="#666666">[timestamp with time zone]</text>
<polygon fill="none" stroke="#000000" points="455,-685.5 455,-715.5 752,-715.5 752,-685.5 455,-685.5"/>
<text text-anchor="start" x="462" y="-696.9" font-family="Arial" font-size="14.00" fill="#000000">updated_at    </text>
<text text-anchor="start" x="566.2468" y="-696.9" font-family="Arial" font-size="14.00" fill="#666666">[timestamp with time zone]</text>
<polygon fill="none" stroke="#000000" points="455,-655.5 455,-685.5 752,-685.5 752,-655.5 455,-655.5"/>
<text text-anchor="start" x="462" y="-666.9" font-family="Arial" font-size="14.00" fill="#000000">deleted_at    </text>
<text text-anchor="start" x="561.5708" y="-666.9" font-family="Arial" font-size="14.00" fill="#666666">[timestamp with time zone]</text>
<polygon fill="none" stroke="#000000" points="455,-625.5 455,-655.5 752,-655.5 752,-625.5 455,-625.5"/>
<text text-anchor="start" x="462" y="-636.9" font-family="Arial" font-size="14.00" fill="#000000">group_id    </text>
<text text-anchor="start" x="550.6676" y="-636.9" font-family="Arial" font-size="14.00" fill="#666666">[text]</text>
<polygon fill="none" stroke="#000000" points="455,-595.5 455,-625.5 752,-625.5 752,-595.5 455,-595.5"/>
<text text-anchor="start" x="462" y="-606.9" font-family="Arial" font-size="14.00" fill="#000000">client_id    </text>
<text text-anchor="start" x="547.5456" y="-606.9" font-family="Arial" font-size="14.00" fill="#666666">[text]</text>
<polygon fill="none" stroke="#000000" points="455,-565.5 455,-595.5 752,-595.5 752,-565.5 455,-565.5"/>
<text text-anchor="start" x="462" y="-576.9" font-family="Arial" font-size="14.00" fill="#000000">software_id    </text>
<text text-anchor="start" x="567.7728" y="-576.9" font-family="Arial" font-size="14.00" fill="#666666">[text]</text>
<polygon fill="none" stroke="#000000" points="455,-535.5 455,-565.5 752,-565.5 752,-535.5 455,-535.5"/>
<text text-anchor="start" x="462" y="-546.9" font-family="Arial" font-size="14.00" fill="#000000">client_name    </text>
<text text-anchor="start" x="571.6648" y="-546.9" font-family="Arial" font-size="14.00" fill="#666666">[text]</text>
<polygon fill="none" stroke="#000000" points="455,-505.5 455,-535.5 752,-535.5 752,-505.5 455,-505.5"/>
<text text-anchor="start" x="462" y="-516.9" font-family="Arial" font-size="14.00" fill="#000000">api_scope    </text>
<text text-anchor="start" x="560.007" y="-516.9" font-family="Arial" font-size="14.00" fill="#666666">[text]</text>
<polygon fill="none" stroke="#000000" points="455,-475.5 455,-505.5 752,-505.5 752,-475.5 455,-475.5"/>
<text text-anchor="start" x="462" y="-486.9" font-family="Arial" font-size="14.00" fill="#000000">g_id    </text>
<text text-anchor="start" x="522.6592" y="-486.9" font-family="Arial" font-size="14.00" fill="#666666">[integer]</text>
<polygon fill="none" stroke="#000000" points="455,-445.5 455,-475.5 752,-475.5 752,-445.5 455,-445.5"/>
<text text-anchor="start" x="461.9271" y="-456.9" font-family="Arial" font-size="14.00" fill="#000000">last_token_at    </text>
<text text-anchor="start" x="579.3885" y="-456.9" font-family="Arial" font-size="14.00" fill="#666666">[timestamp with time zone]</text>
<polygon fill="none" stroke="#000000" points="455,-415.5 455,-445.5 752,-445.5 752,-415.5 455,-415.5"/>
<text text-anchor="start" x="462" y="-426.9" font-family="Arial" font-size="14.00" fill="#000000">x_data    </text>
<text text-anchor="start" x="538.2258" y="-426.9" font-family="Arial" font-size="14.00" fill="#666666">[text]</text>
</g>
<!-- public.systems&#45;&gt;public.groups -->
<g id="edge1" class="edge">
<title>public.systems:g_id&#45;&gt;public.groups:id</title>
<path fill="none" stroke="#000000" d="M444.933,-489.7828C344.9219,-475.1191 368.9451,-240.5 477,-240.5"/>
<polygon fill="#000000" stroke="#000000" points="445.0253,-489.7893 454.6802,-494.9886 450.0126,-490.1447 455,-490.5 455,-490.5 455,-490.5 450.0126,-490.1447 455.3198,-486.0114 445.0253,-489.7893 445.0253,-489.7893"/>
<text text-anchor="start" x="7.1685" y="-500.5" font-family="Arial" font-size="10.00" fill="#000000">FOREIGN KEY (g_id) REFERENCES groups(id) ON UPDATE RESTRICT ON DELETE RESTRICT</text>
</g>
</g>
</svg>
