<?xml version="1.0" encoding="UTF-8" standalone="no"?>
<!DOCTYPE svg PUBLIC "-//W3C//DTD SVG 1.1//EN"
 "http://www.w3.org/Graphics/SVG/1.1/DTD/svg11.dtd">
<!-- Generated by graphviz version 2.40.1 (20161225.0304)
 -->
<!-- Title: public.ips Pages: 1 -->
<svg width="688pt" height="832pt"
 viewBox="0.00 0.00 687.50 832.00" xmlns="http://www.w3.org/2000/svg" xmlns:xlink="http://www.w3.org/1999/xlink">
<g id="graph0" class="graph" transform="scale(1 1) rotate(0) translate(4 828)">
<title>public.ips</title>
<polygon fill="#ffffff" stroke="transparent" points="-4,4 -4,-828 683.5,-828 683.5,4 -4,4"/>
<!-- public.ips -->
<g id="node1" class="node">
<title>public.ips</title>
<polygon fill="#efefef" stroke="transparent" points="65.5,-742.5 65.5,-777.5 318.5,-777.5 318.5,-742.5 65.5,-742.5"/>
<polygon fill="none" stroke="#000000" points="65.5,-742.5 65.5,-777.5 318.5,-777.5 318.5,-742.5 65.5,-742.5"/>
<text text-anchor="start" x="90.7112" y="-755.3" font-family="Arial Bold" font-size="18.00" fill="#000000">public.ips</text>
<text text-anchor="start" x="165.7208" y="-755.3" font-family="Arial" font-size="14.00" fill="#000000">    </text>
<text text-anchor="start" x="199.9256" y="-755.3" font-family="Arial" font-size="14.00" fill="#666666">[BASE TABLE]</text>
<polygon fill="none" stroke="#000000" points="65.5,-712.5 65.5,-742.5 318.5,-742.5 318.5,-712.5 65.5,-712.5"/>
<text text-anchor="start" x="72.5" y="-723.9" font-family="Arial" font-size="14.00" fill="#000000">id </text>
<text text-anchor="start" x="87.2798" y="-723.9" font-family="Arial" font-size="14.00" fill="#666666">[integer]</text>
<polygon fill="none" stroke="#000000" points="65.5,-682.5 65.5,-712.5 318.5,-712.5 318.5,-682.5 65.5,-682.5"/>
<text text-anchor="start" x="72.5" y="-693.9" font-family="Arial" font-size="14.00" fill="#000000">created_at </text>
<text text-anchor="start" x="142.528" y="-693.9" font-family="Arial" font-size="14.00" fill="#666666">[timestamp with time zone]</text>
<polygon fill="none" stroke="#000000" points="65.5,-652.5 65.5,-682.5 318.5,-682.5 318.5,-652.5 65.5,-652.5"/>
<text text-anchor="start" x="72.1915" y="-663.9" font-family="Arial" font-size="14.00" fill="#000000">updated_at </text>
<text text-anchor="start" x="146.1241" y="-663.9" font-family="Arial" font-size="14.00" fill="#666666">[timestamp with time zone]</text>
<polygon fill="none" stroke="#000000" points="65.5,-622.5 65.5,-652.5 318.5,-652.5 318.5,-622.5 65.5,-622.5"/>
<text text-anchor="start" x="72.5" y="-633.9" font-family="Arial" font-size="14.00" fill="#000000">deleted_at </text>
<text text-anchor="start" x="141.7566" y="-633.9" font-family="Arial" font-size="14.00" fill="#666666">[timestamp with time zone]</text>
<polygon fill="none" stroke="#000000" points="65.5,-592.5 65.5,-622.5 318.5,-622.5 318.5,-592.5 65.5,-592.5"/>
<text text-anchor="start" x="72.5" y="-603.9" font-family="Arial" font-size="14.00" fill="#000000">address </text>
<text text-anchor="start" x="126.1816" y="-603.9" font-family="Arial" font-size="14.00" fill="#666666">[inet]</text>
<polygon fill="none" stroke="#000000" points="65.5,-562.5 65.5,-592.5 318.5,-592.5 318.5,-562.5 65.5,-562.5"/>
<text text-anchor="start" x="72.5" y="-573.9" font-family="Arial" font-size="14.00" fill="#000000">system_id </text>
<text text-anchor="start" x="139.3962" y="-573.9" font-family="Arial" font-size="14.00" fill="#666666">[integer]</text>
<polygon fill="none" stroke="#000000" stroke-width="3" points="63.5,-561.5 63.5,-779.5 319.5,-779.5 319.5,-561.5 63.5,-561.5"/>
</g>
<!-- public.systems -->
<g id="node2" class="node">
<title>public.systems</title>
<polygon fill="#efefef" stroke="transparent" points="43.5,-402.5 43.5,-437.5 340.5,-437.5 340.5,-402.5 43.5,-402.5"/>
<polygon fill="none" stroke="#000000" points="43.5,-402.5 43.5,-437.5 340.5,-437.5 340.5,-402.5 43.5,-402.5"/>
<text text-anchor="start" x="69.2111" y="-415.3" font-family="Arial Bold" font-size="18.00" fill="#000000">public.systems</text>
<text text-anchor="start" x="187.2209" y="-415.3" font-family="Arial" font-size="14.00" fill="#000000">    </text>
<text text-anchor="start" x="221.4257" y="-415.3" font-family="Arial" font-size="14.00" fill="#666666">[BASE TABLE]</text>
<polygon fill="none" stroke="#000000" points="43.5,-372.5 43.5,-402.5 340.5,-402.5 340.5,-372.5 43.5,-372.5"/>
<text text-anchor="start" x="50.5" y="-383.9" font-family="Arial" font-size="14.00" fill="#000000">id    </text>
<text text-anchor="start" x="95.594" y="-383.9" font-family="Arial" font-size="14.00" fill="#666666">[integer]</text>
<polygon fill="none" stroke="#000000" points="43.5,-342.5 43.5,-372.5 340.5,-372.5 340.5,-342.5 43.5,-342.5"/>
<text text-anchor="start" x="50.5" y="-353.9" font-family="Arial" font-size="14.00" fill="#000000">created_at    </text>
<text text-anchor="start" x="150.8422" y="-353.9" font-family="Arial" font-size="14.00" fill="#666666">[timestamp with time zone]</text>
<polygon fill="none" stroke="#000000" points="43.5,-312.5 43.5,-342.5 340.5,-342.5 340.5,-312.5 43.5,-312.5"/>
<text text-anchor="start" x="50.5" y="-323.9" font-family="Arial" font-size="14.00" fill="#000000">updated_at    </text>
<text text-anchor="start" x="154.7468" y="-323.9" font-family="Arial" font-size="14.00" fill="#666666">[timestamp with time zone]</text>
<polygon fill="none" stroke="#000000" points="43.5,-282.5 43.5,-312.5 340.5,-312.5 340.5,-282.5 43.5,-282.5"/>
<text text-anchor="start" x="50.5" y="-293.9" font-family="Arial" font-size="14.00" fill="#000000">deleted_at    </text>
<text text-anchor="start" x="150.0708" y="-293.9" font-family="Arial" font-size="14.00" fill="#666666">[timestamp with time zone]</text>
<polygon fill="none" stroke="#000000" points="43.5,-252.5 43.5,-282.5 340.5,-282.5 340.5,-252.5 43.5,-252.5"/>
<text text-anchor="start" x="50.5" y="-263.9" font-family="Arial" font-size="14.00" fill="#000000">group_id    </text>
<text text-anchor="start" x="139.1676" y="-263.9" font-family="Arial" font-size="14.00" fill="#666666">[text]</text>
<polygon fill="none" stroke="#000000" points="43.5,-222.5 43.5,-252.5 340.5,-252.5 340.5,-222.5 43.5,-222.5"/>
<text text-anchor="start" x="50.5" y="-233.9" font-family="Arial" font-size="14.00" fill="#000000">client_id    </text>
<text text-anchor="start" x="136.0456" y="-233.9" font-family="Arial" font-size="14.00" fill="#666666">[text]</text>
<polygon fill="none" stroke="#000000" points="43.5,-192.5 43.5,-222.5 340.5,-222.5 340.5,-192.5 43.5,-192.5"/>
<text text-anchor="start" x="50.5" y="-203.9" font-family="Arial" font-size="14.00" fill="#000000">software_id    </text>
<text text-anchor="start" x="156.2728" y="-203.9" font-family="Arial" font-size="14.00" fill="#666666">[text]</text>
<polygon fill="none" stroke="#000000" points="43.5,-162.5 43.5,-192.5 340.5,-192.5 340.5,-162.5 43.5,-162.5"/>
<text text-anchor="start" x="50.5" y="-173.9" font-family="Arial" font-size="14.00" fill="#000000">client_name    </text>
<text text-anchor="start" x="160.1648" y="-173.9" font-family="Arial" font-size="14.00" fill="#666666">[text]</text>
<polygon fill="none" stroke="#000000" points="43.5,-132.5 43.5,-162.5 340.5,-162.5 340.5,-132.5 43.5,-132.5"/>
<text text-anchor="start" x="50.5" y="-143.9" font-family="Arial" font-size="14.00" fill="#000000">api_scope    </text>
<text text-anchor="start" x="148.507" y="-143.9" font-family="Arial" font-size="14.00" fill="#666666">[text]</text>
<polygon fill="none" stroke="#000000" points="43.5,-102.5 43.5,-132.5 340.5,-132.5 340.5,-102.5 43.5,-102.5"/>
<text text-anchor="start" x="50.5" y="-113.9" font-family="Arial" font-size="14.00" fill="#000000">g_id    </text>
<text text-anchor="start" x="111.1592" y="-113.9" font-family="Arial" font-size="14.00" fill="#666666">[integer]</text>
<polygon fill="none" stroke="#000000" points="43.5,-72.5 43.5,-102.5 340.5,-102.5 340.5,-72.5 43.5,-72.5"/>
<text text-anchor="start" x="50.4271" y="-83.9" font-family="Arial" font-size="14.00" fill="#000000">last_token_at    </text>
<text text-anchor="start" x="167.8885" y="-83.9" font-family="Arial" font-size="14.00" fill="#666666">[timestamp with time zone]</text>
<polygon fill="none" stroke="#000000" points="43.5,-42.5 43.5,-72.5 340.5,-72.5 340.5,-42.5 43.5,-42.5"/>
<text text-anchor="start" x="50.5" y="-53.9" font-family="Arial" font-size="14.00" fill="#000000">x_data    </text>
<text text-anchor="start" x="126.7258" y="-53.9" font-family="Arial" font-size="14.00" fill="#666666">[text]</text>
</g>
<!-- public.ips&#45;&gt;public.systems -->
<g id="edge1" class="edge">
<title>public.ips:system_id&#45;&gt;public.systems:id</title>
<path fill="none" stroke="#000000" d="M191.7308,-552.3743C181.8799,-492.4764 80.1129,-542.7586 43.5,-481 22.3084,-445.254 1.9444,-387.5 43.5,-387.5"/>
<polygon fill="#000000" stroke="#000000" points="191.7425,-552.5287 188.0129,-562.8409 192.1212,-557.5144 192.5,-562.5 192.5,-562.5 192.5,-562.5 192.1212,-557.5144 196.9871,-562.1591 191.7425,-552.5287 191.7425,-552.5287"/>
<text text-anchor="start" x="199.5635" y="-572.5" font-family="Arial" font-size="10.00" fill="#000000">FOREIGN KEY (system_id) REFERENCES systems(id) ON UPDATE RESTRICT ON DELETE RESTRICT</text>
</g>
</g>
</svg>
