<?xml version="1.0" encoding="UTF-8" standalone="no"?>
<!DOCTYPE svg PUBLIC "-//W3C//DTD SVG 1.1//EN"
 "http://www.w3.org/Graphics/SVG/1.1/DTD/svg11.dtd">
<!-- Generated by graphviz version 2.40.1 (20161225.0304)
 -->
<!-- Title: public.encryption_keys Pages: 1 -->
<svg width="864pt" height="862pt"
 viewBox="0.00 0.00 863.50 862.00" xmlns="http://www.w3.org/2000/svg" xmlns:xlink="http://www.w3.org/1999/xlink">
<g id="graph0" class="graph" transform="scale(1 1) rotate(0) translate(4 858)">
<title>public.encryption_keys</title>
<polygon fill="#ffffff" stroke="transparent" points="-4,4 -4,-858 859.5,-858 859.5,4 -4,4"/>
<!-- public.encryption_keys -->
<g id="node1" class="node">
<title>public.encryption_keys</title>
<polygon fill="#efefef" stroke="transparent" points="487,-772.5 487,-807.5 810,-807.5 810,-772.5 487,-772.5"/>
<polygon fill="none" stroke="#000000" points="487,-772.5 487,-807.5 810,-807.5 810,-772.5 487,-772.5"/>
<text text-anchor="start" x="493.6954" y="-785.3" font-family="Arial Bold" font-size="18.00" fill="#000000">public.encryption_keys</text>
<text text-anchor="start" x="675.7366" y="-785.3" font-family="Arial" font-size="14.00" fill="#000000">    </text>
<text text-anchor="start" x="709.9414" y="-785.3" font-family="Arial" font-size="14.00" fill="#666666">[BASE TABLE]</text>
<polygon fill="none" stroke="#000000" points="487,-742.5 487,-772.5 810,-772.5 810,-742.5 487,-742.5"/>
<text text-anchor="start" x="494" y="-753.9" font-family="Arial" font-size="14.00" fill="#000000">id </text>
<text text-anchor="start" x="508.7798" y="-753.9" font-family="Arial" font-size="14.00" fill="#666666">[integer]</text>
<polygon fill="none" stroke="#000000" points="487,-712.5 487,-742.5 810,-742.5 810,-712.5 487,-712.5"/>
<text text-anchor="start" x="494" y="-723.9" font-family="Arial" font-size="14.00" fill="#000000">created_at </text>
<text text-anchor="start" x="564.028" y="-723.9" font-family="Arial" font-size="14.00" fill="#666666">[timestamp with time zone]</text>
<polygon fill="none" stroke="#000000" points="487,-682.5 487,-712.5 810,-712.5 810,-682.5 487,-682.5"/>
<text text-anchor="start" x="494" y="-693.9" font-family="Arial" font-size="14.00" fill="#000000">updated_at </text>
<text text-anchor="start" x="567.9326" y="-693.9" font-family="Arial" font-size="14.00" fill="#666666">[timestamp with time zone]</text>
<polygon fill="none" stroke="#000000" points="487,-652.5 487,-682.5 810,-682.5 810,-652.5 487,-652.5"/>
<text text-anchor="start" x="494" y="-663.9" font-family="Arial" font-size="14.00" fill="#000000">deleted_at </text>
<text text-anchor="start" x="563.2566" y="-663.9" font-family="Arial" font-size="14.00" fill="#666666">[timestamp with time zone]</text>
<polygon fill="none" stroke="#000000" points="487,-622.5 487,-652.5 810,-652.5 810,-622.5 487,-622.5"/>
<text text-anchor="start" x="494" y="-633.9" font-family="Arial" font-size="14.00" fill="#000000">body </text>
<text text-anchor="start" x="528.2384" y="-633.9" font-family="Arial" font-size="14.00" fill="#666666">[text]</text>
<polygon fill="none" stroke="#000000" points="487,-592.5 487,-622.5 810,-622.5 810,-592.5 487,-592.5"/>
<text text-anchor="start" x="494" y="-603.9" font-family="Arial" font-size="14.00" fill="#000000">system_id </text>
<text text-anchor="start" x="560.8962" y="-603.9" font-family="Arial" font-size="14.00" fill="#666666">[integer]</text>
<polygon fill="none" stroke="#000000" points="487,-562.5 487,-592.5 810,-592.5 810,-562.5 487,-562.5"/>
<text text-anchor="start" x="494" y="-573.9" font-family="Arial" font-size="14.00" fill="#000000">uuid </text>
<text text-anchor="start" x="524.345" y="-573.9" font-family="Arial" font-size="14.00" fill="#666666">[text]</text>
<polygon fill="none" stroke="#000000" stroke-width="3" points="485,-561.5 485,-809.5 811,-809.5 811,-561.5 485,-561.5"/>
</g>
<!-- public.systems -->
<g id="node2" class="node">
<title>public.systems</title>
<polygon fill="#efefef" stroke="transparent" points="500,-402.5 500,-437.5 797,-437.5 797,-402.5 500,-402.5"/>
<polygon fill="none" stroke="#000000" points="500,-402.5 500,-437.5 797,-437.5 797,-402.5 500,-402.5"/>
<text text-anchor="start" x="525.7111" y="-415.3" font-family="Arial Bold" font-size="18.00" fill="#000000">public.systems</text>
<text text-anchor="start" x="643.7209" y="-415.3" font-family="Arial" font-size="14.00" fill="#000000">    </text>
<text text-anchor="start" x="677.9257" y="-415.3" font-family="Arial" font-size="14.00" fill="#666666">[BASE TABLE]</text>
<polygon fill="none" stroke="#000000" points="500,-372.5 500,-402.5 797,-402.5 797,-372.5 500,-372.5"/>
<text text-anchor="start" x="507" y="-383.9" font-family="Arial" font-size="14.00" fill="#000000">id    </text>
<text text-anchor="start" x="552.094" y="-383.9" font-family="Arial" font-size="14.00" fill="#666666">[integer]</text>
<polygon fill="none" stroke="#000000" points="500,-342.5 500,-372.5 797,-372.5 797,-342.5 500,-342.5"/>
<text text-anchor="start" x="507" y="-353.9" font-family="Arial" font-size="14.00" fill="#000000">created_at    </text>
<text text-anchor="start" x="607.3422" y="-353.9" font-family="Arial" font-size="14.00" fill="#666666">[timestamp with time zone]</text>
<polygon fill="none" stroke="#000000" points="500,-312.5 500,-342.5 797,-342.5 797,-312.5 500,-312.5"/>
<text text-anchor="start" x="507" y="-323.9" font-family="Arial" font-size="14.00" fill="#000000">updated_at    </text>
<text text-anchor="start" x="611.2468" y="-323.9" font-family="Arial" font-size="14.00" fill="#666666">[timestamp with time zone]</text>
<polygon fill="none" stroke="#000000" points="500,-282.5 500,-312.5 797,-312.5 797,-282.5 500,-282.5"/>
<text text-anchor="start" x="507" y="-293.9" font-family="Arial" font-size="14.00" fill="#000000">deleted_at    </text>
<text text-anchor="start" x="606.5708" y="-293.9" font-family="Arial" font-size="14.00" fill="#666666">[timestamp with time zone]</text>
<polygon fill="none" stroke="#000000" points="500,-252.5 500,-282.5 797,-282.5 797,-252.5 500,-252.5"/>
<text text-anchor="start" x="507" y="-263.9" font-family="Arial" font-size="14.00" fill="#000000">group_id    </text>
<text text-anchor="start" x="595.6676" y="-263.9" font-family="Arial" font-size="14.00" fill="#666666">[text]</text>
<polygon fill="none" stroke="#000000" points="500,-222.5 500,-252.5 797,-252.5 797,-222.5 500,-222.5"/>
<text text-anchor="start" x="507" y="-233.9" font-family="Arial" font-size="14.00" fill="#000000">client_id    </text>
<text text-anchor="start" x="592.5456" y="-233.9" font-family="Arial" font-size="14.00" fill="#666666">[text]</text>
<polygon fill="none" stroke="#000000" points="500,-192.5 500,-222.5 797,-222.5 797,-192.5 500,-192.5"/>
<text text-anchor="start" x="507" y="-203.9" font-family="Arial" font-size="14.00" fill="#000000">software_id    </text>
<text text-anchor="start" x="612.7728" y="-203.9" font-family="Arial" font-size="14.00" fill="#666666">[text]</text>
<polygon fill="none" stroke="#000000" points="500,-162.5 500,-192.5 797,-192.5 797,-162.5 500,-162.5"/>
<text text-anchor="start" x="507" y="-173.9" font-family="Arial" font-size="14.00" fill="#000000">client_name    </text>
<text text-anchor="start" x="616.6648" y="-173.9" font-family="Arial" font-size="14.00" fill="#666666">[text]</text>
<polygon fill="none" stroke="#000000" points="500,-132.5 500,-162.5 797,-162.5 797,-132.5 500,-132.5"/>
<text text-anchor="start" x="507" y="-143.9" font-family="Arial" font-size="14.00" fill="#000000">api_scope    </text>
<text text-anchor="start" x="605.007" y="-143.9" font-family="Arial" font-size="14.00" fill="#666666">[text]</text>
<polygon fill="none" stroke="#000000" points="500,-102.5 500,-132.5 797,-132.5 797,-102.5 500,-102.5"/>
<text text-anchor="start" x="507" y="-113.9" font-family="Arial" font-size="14.00" fill="#000000">g_id    </text>
<text text-anchor="start" x="567.6592" y="-113.9" font-family="Arial" font-size="14.00" fill="#666666">[integer]</text>
<polygon fill="none" stroke="#000000" points="500,-72.5 500,-102.5 797,-102.5 797,-72.5 500,-72.5"/>
<text text-anchor="start" x="506.9271" y="-83.9" font-family="Arial" font-size="14.00" fill="#000000">last_token_at    </text>
<text text-anchor="start" x="624.3885" y="-83.9" font-family="Arial" font-size="14.00" fill="#666666">[timestamp with time zone]</text>
<polygon fill="none" stroke="#000000" points="500,-42.5 500,-72.5 797,-72.5 797,-42.5 500,-42.5"/>
<text text-anchor="start" x="507" y="-53.9" font-family="Arial" font-size="14.00" fill="#000000">x_data    </text>
<text text-anchor="start" x="583.2258" y="-53.9" font-family="Arial" font-size="14.00" fill="#666666">[text]</text>
</g>
<!-- public.encryption_keys&#45;&gt;public.systems -->
<g id="edge1" class="edge">
<title>public.encryption_keys:system_id&#45;&gt;public.systems:id</title>
<path fill="none" stroke="#000000" d="M476.8159,-606.6591C390.102,-591.8888 405.5908,-387.5 500,-387.5"/>
<polygon fill="#000000" stroke="#000000" points="477.0339,-606.677 486.6296,-611.9847 482.017,-607.0885 487,-607.5 487,-607.5 487,-607.5 482.017,-607.0885 487.3704,-603.0153 477.0339,-606.677 477.0339,-606.677"/>
<text text-anchor="start" x="7.0635" y="-617.5" font-family="Arial" font-size="10.00" fill="#000000">FOREIGN KEY (system_id) REFERENCES systems(id) ON UPDATE RESTRICT ON DELETE RESTRICT</text>
</g>
</g>
</svg>
