<?xml version="1.0" encoding="UTF-8" standalone="no"?>
<!DOCTYPE svg PUBLIC "-//W3C//DTD SVG 1.1//EN"
 "http://www.w3.org/Graphics/SVG/1.1/DTD/svg11.dtd">
<!-- Generated by graphviz version 2.40.1 (20161225.0304)
 -->
<!-- Title: bcda Pages: 1 -->
<svg width="2859pt" height="1253pt"
 viewBox="0.00 0.00 2859.00 1253.00" xmlns="http://www.w3.org/2000/svg" xmlns:xlink="http://www.w3.org/1999/xlink">
<g id="graph0" class="graph" transform="scale(1 1) rotate(0) translate(4 1249)">
<title>bcda</title>
<polygon fill="#ffffff" stroke="transparent" points="-4,4 -4,-1249 2855,-1249 2855,4 -4,4"/>
<!-- public.schema_migrations -->
<g id="node1" class="node">
<title>public.schema_migrations</title>
<polygon fill="#efefef" stroke="transparent" points="43.5,-1076.5 43.5,-1111.5 392.5,-1111.5 392.5,-1076.5 43.5,-1076.5"/>
<polygon fill="none" stroke="#000000" points="43.5,-1076.5 43.5,-1111.5 392.5,-1111.5 392.5,-1076.5 43.5,-1076.5"/>
<text text-anchor="start" x="50.203" y="-1089.3" font-family="Arial Bold" font-size="18.00" fill="#000000">public.schema_migrations</text>
<text text-anchor="start" x="258.229" y="-1089.3" font-family="Arial" font-size="14.00" fill="#000000">    </text>
<text text-anchor="start" x="292.4338" y="-1089.3" font-family="Arial" font-size="14.00" fill="#666666">[BASE TABLE]</text>
<polygon fill="none" stroke="#000000" points="43.5,-1046.5 43.5,-1076.5 392.5,-1076.5 392.5,-1046.5 43.5,-1046.5"/>
<text text-anchor="start" x="50.5" y="-1057.9" font-family="Arial" font-size="14.00" fill="#000000">version    </text>
<text text-anchor="start" x="129.8198" y="-1057.9" font-family="Arial" font-size="14.00" fill="#666666">[bigint]</text>
<polygon fill="none" stroke="#000000" points="43.5,-1016.5 43.5,-1046.5 392.5,-1046.5 392.5,-1016.5 43.5,-1016.5"/>
<text text-anchor="start" x="50.5" y="-1027.9" font-family="Arial" font-size="14.00" fill="#000000">dirty    </text>
<text text-anchor="start" x="111.1452" y="-1027.9" font-family="Arial" font-size="14.00" fill="#666666">[boolean]</text>
</g>
<!-- public.blacklist_entries -->
<g id="node2" class="node">
<title>public.blacklist_entries</title>
<polygon fill="#efefef" stroke="transparent" points="496.5,-1151.5 496.5,-1186.5 817.5,-1186.5 817.5,-1151.5 496.5,-1151.5"/>
<polygon fill="none" stroke="#000000" points="496.5,-1151.5 496.5,-1186.5 817.5,-1186.5 817.5,-1151.5 496.5,-1151.5"/>
<text text-anchor="start" x="503.2061" y="-1164.3" font-family="Arial Bold" font-size="18.00" fill="#000000">public.blacklist_entries</text>
<text text-anchor="start" x="683.2259" y="-1164.3" font-family="Arial" font-size="14.00" fill="#000000">    </text>
<text text-anchor="start" x="717.4307" y="-1164.3" font-family="Arial" font-size="14.00" fill="#666666">[BASE TABLE]</text>
<polygon fill="none" stroke="#000000" points="496.5,-1121.5 496.5,-1151.5 817.5,-1151.5 817.5,-1121.5 496.5,-1121.5"/>
<text text-anchor="start" x="503.5" y="-1132.9" font-family="Arial" font-size="14.00" fill="#000000">id    </text>
<text text-anchor="start" x="548.594" y="-1132.9" font-family="Arial" font-size="14.00" fill="#666666">[integer]</text>
<polygon fill="none" stroke="#000000" points="496.5,-1091.5 496.5,-1121.5 817.5,-1121.5 817.5,-1091.5 496.5,-1091.5"/>
<text text-anchor="start" x="503.5" y="-1102.9" font-family="Arial" font-size="14.00" fill="#000000">created_at    </text>
<text text-anchor="start" x="603.8422" y="-1102.9" font-family="Arial" font-size="14.00" fill="#666666">[timestamp with time zone]</text>
<polygon fill="none" stroke="#000000" points="496.5,-1061.5 496.5,-1091.5 817.5,-1091.5 817.5,-1061.5 496.5,-1061.5"/>
<text text-anchor="start" x="503.5" y="-1072.9" font-family="Arial" font-size="14.00" fill="#000000">updated_at    </text>
<text text-anchor="start" x="607.7468" y="-1072.9" font-family="Arial" font-size="14.00" fill="#666666">[timestamp with time zone]</text>
<polygon fill="none" stroke="#000000" points="496.5,-1031.5 496.5,-1061.5 817.5,-1061.5 817.5,-1031.5 496.5,-1031.5"/>
<text text-anchor="start" x="503.5" y="-1042.9" font-family="Arial" font-size="14.00" fill="#000000">deleted_at    </text>
<text text-anchor="start" x="603.0708" y="-1042.9" font-family="Arial" font-size="14.00" fill="#666666">[timestamp with time zone]</text>
<polygon fill="none" stroke="#000000" points="496.5,-1001.5 496.5,-1031.5 817.5,-1031.5 817.5,-1001.5 496.5,-1001.5"/>
<text text-anchor="start" x="503.5" y="-1012.9" font-family="Arial" font-size="14.00" fill="#000000">key    </text>
<text text-anchor="start" x="559.4874" y="-1012.9" font-family="Arial" font-size="14.00" fill="#666666">[text]</text>
<polygon fill="none" stroke="#000000" points="496.5,-971.5 496.5,-1001.5 817.5,-1001.5 817.5,-971.5 496.5,-971.5"/>
<text text-anchor="start" x="503.5" y="-982.9" font-family="Arial" font-size="14.00" fill="#000000">entry_date    </text>
<text text-anchor="start" x="603.8422" y="-982.9" font-family="Arial" font-size="14.00" fill="#666666">[bigint]</text>
<polygon fill="none" stroke="#000000" points="496.5,-941.5 496.5,-971.5 817.5,-971.5 817.5,-941.5 496.5,-941.5"/>
<text text-anchor="start" x="503.5" y="-952.9" font-family="Arial" font-size="14.00" fill="#000000">cache_expiration    </text>
<text text-anchor="start" x="643.5126" y="-952.9" font-family="Arial" font-size="14.00" fill="#666666">[bigint]</text>
</g>
<!-- public.encryption_keys -->
<g id="node3" class="node">
<title>public.encryption_keys</title>
<polygon fill="#efefef" stroke="transparent" points="921.5,-1151.5 921.5,-1186.5 1244.5,-1186.5 1244.5,-1151.5 921.5,-1151.5"/>
<polygon fill="none" stroke="#000000" points="921.5,-1151.5 921.5,-1186.5 1244.5,-1186.5 1244.5,-1151.5 921.5,-1151.5"/>
<text text-anchor="start" x="928.1954" y="-1164.3" font-family="Arial Bold" font-size="18.00" fill="#000000">public.encryption_keys</text>
<text text-anchor="start" x="1110.2366" y="-1164.3" font-family="Arial" font-size="14.00" fill="#000000">    </text>
<text text-anchor="start" x="1144.4414" y="-1164.3" font-family="Arial" font-size="14.00" fill="#666666">[BASE TABLE]</text>
<polygon fill="none" stroke="#000000" points="921.5,-1121.5 921.5,-1151.5 1244.5,-1151.5 1244.5,-1121.5 921.5,-1121.5"/>
<text text-anchor="start" x="928.5" y="-1132.9" font-family="Arial" font-size="14.00" fill="#000000">id    </text>
<text text-anchor="start" x="973.594" y="-1132.9" font-family="Arial" font-size="14.00" fill="#666666">[integer]</text>
<polygon fill="none" stroke="#000000" points="921.5,-1091.5 921.5,-1121.5 1244.5,-1121.5 1244.5,-1091.5 921.5,-1091.5"/>
<text text-anchor="start" x="928.5" y="-1102.9" font-family="Arial" font-size="14.00" fill="#000000">created_at    </text>
<text text-anchor="start" x="1028.8422" y="-1102.9" font-family="Arial" font-size="14.00" fill="#666666">[timestamp with time zone]</text>
<polygon fill="none" stroke="#000000" points="921.5,-1061.5 921.5,-1091.5 1244.5,-1091.5 1244.5,-1061.5 921.5,-1061.5"/>
<text text-anchor="start" x="928.5" y="-1072.9" font-family="Arial" font-size="14.00" fill="#000000">updated_at    </text>
<text text-anchor="start" x="1032.7468" y="-1072.9" font-family="Arial" font-size="14.00" fill="#666666">[timestamp with time zone]</text>
<polygon fill="none" stroke="#000000" points="921.5,-1031.5 921.5,-1061.5 1244.5,-1061.5 1244.5,-1031.5 921.5,-1031.5"/>
<text text-anchor="start" x="928.5" y="-1042.9" font-family="Arial" font-size="14.00" fill="#000000">deleted_at    </text>
<text text-anchor="start" x="1028.0708" y="-1042.9" font-family="Arial" font-size="14.00" fill="#666666">[timestamp with time zone]</text>
<polygon fill="none" stroke="#000000" points="921.5,-1001.5 921.5,-1031.5 1244.5,-1031.5 1244.5,-1001.5 921.5,-1001.5"/>
<text text-anchor="start" x="928.5" y="-1012.9" font-family="Arial" font-size="14.00" fill="#000000">body    </text>
<text text-anchor="start" x="993.0526" y="-1012.9" font-family="Arial" font-size="14.00" fill="#666666">[text]</text>
<polygon fill="none" stroke="#000000" points="921.5,-971.5 921.5,-1001.5 1244.5,-1001.5 1244.5,-971.5 921.5,-971.5"/>
<text text-anchor="start" x="928.5" y="-982.9" font-family="Arial" font-size="14.00" fill="#000000">system_id    </text>
<text text-anchor="start" x="1025.7104" y="-982.9" font-family="Arial" font-size="14.00" fill="#666666">[integer]</text>
<polygon fill="none" stroke="#000000" points="921.5,-941.5 921.5,-971.5 1244.5,-971.5 1244.5,-941.5 921.5,-941.5"/>
<text text-anchor="start" x="928.5" y="-952.9" font-family="Arial" font-size="14.00" fill="#000000">uuid    </text>
<text text-anchor="start" x="989.1592" y="-952.9" font-family="Arial" font-size="14.00" fill="#666666">[text]</text>
</g>
<!-- public.systems -->
<g id="node6" class="node">
<title>public.systems</title>
<polygon fill="#efefef" stroke="transparent" points="1341.5,-769.5 1341.5,-804.5 1638.5,-804.5 1638.5,-769.5 1341.5,-769.5"/>
<polygon fill="none" stroke="#000000" points="1341.5,-769.5 1341.5,-804.5 1638.5,-804.5 1638.5,-769.5 1341.5,-769.5"/>
<text text-anchor="start" x="1367.2111" y="-782.3" font-family="Arial Bold" font-size="18.00" fill="#000000">public.systems</text>
<text text-anchor="start" x="1485.2209" y="-782.3" font-family="Arial" font-size="14.00" fill="#000000">    </text>
<text text-anchor="start" x="1519.4257" y="-782.3" font-family="Arial" font-size="14.00" fill="#666666">[BASE TABLE]</text>
<polygon fill="none" stroke="#000000" points="1341.5,-739.5 1341.5,-769.5 1638.5,-769.5 1638.5,-739.5 1341.5,-739.5"/>
<text text-anchor="start" x="1348.5" y="-750.9" font-family="Arial" font-size="14.00" fill="#000000">id    </text>
<text text-anchor="start" x="1393.594" y="-750.9" font-family="Arial" font-size="14.00" fill="#666666">[integer]</text>
<polygon fill="none" stroke="#000000" points="1341.5,-709.5 1341.5,-739.5 1638.5,-739.5 1638.5,-709.5 1341.5,-709.5"/>
<text text-anchor="start" x="1348.5" y="-720.9" font-family="Arial" font-size="14.00" fill="#000000">created_at    </text>
<text text-anchor="start" x="1448.8422" y="-720.9" font-family="Arial" font-size="14.00" fill="#666666">[timestamp with time zone]</text>
<polygon fill="none" stroke="#000000" points="1341.5,-679.5 1341.5,-709.5 1638.5,-709.5 1638.5,-679.5 1341.5,-679.5"/>
<text text-anchor="start" x="1348.5" y="-690.9" font-family="Arial" font-size="14.00" fill="#000000">updated_at    </text>
<text text-anchor="start" x="1452.7468" y="-690.9" font-family="Arial" font-size="14.00" fill="#666666">[timestamp with time zone]</text>
<polygon fill="none" stroke="#000000" points="1341.5,-649.5 1341.5,-679.5 1638.5,-679.5 1638.5,-649.5 1341.5,-649.5"/>
<text text-anchor="start" x="1348.5" y="-660.9" font-family="Arial" font-size="14.00" fill="#000000">deleted_at    </text>
<text text-anchor="start" x="1448.0708" y="-660.9" font-family="Arial" font-size="14.00" fill="#666666">[timestamp with time zone]</text>
<polygon fill="none" stroke="#000000" points="1341.5,-619.5 1341.5,-649.5 1638.5,-649.5 1638.5,-619.5 1341.5,-619.5"/>
<text text-anchor="start" x="1348.5" y="-630.9" font-family="Arial" font-size="14.00" fill="#000000">group_id    </text>
<text text-anchor="start" x="1437.1676" y="-630.9" font-family="Arial" font-size="14.00" fill="#666666">[text]</text>
<polygon fill="none" stroke="#000000" points="1341.5,-589.5 1341.5,-619.5 1638.5,-619.5 1638.5,-589.5 1341.5,-589.5"/>
<text text-anchor="start" x="1348.5" y="-600.9" font-family="Arial" font-size="14.00" fill="#000000">client_id    </text>
<text text-anchor="start" x="1434.0456" y="-600.9" font-family="Arial" font-size="14.00" fill="#666666">[text]</text>
<polygon fill="none" stroke="#000000" points="1341.5,-559.5 1341.5,-589.5 1638.5,-589.5 1638.5,-559.5 1341.5,-559.5"/>
<text text-anchor="start" x="1348.5" y="-570.9" font-family="Arial" font-size="14.00" fill="#000000">software_id    </text>
<text text-anchor="start" x="1454.2728" y="-570.9" font-family="Arial" font-size="14.00" fill="#666666">[text]</text>
<polygon fill="none" stroke="#000000" points="1341.5,-529.5 1341.5,-559.5 1638.5,-559.5 1638.5,-529.5 1341.5,-529.5"/>
<text text-anchor="start" x="1348.5" y="-540.9" font-family="Arial" font-size="14.00" fill="#000000">client_name    </text>
<text text-anchor="start" x="1458.1648" y="-540.9" font-family="Arial" font-size="14.00" fill="#666666">[text]</text>
<polygon fill="none" stroke="#000000" points="1341.5,-499.5 1341.5,-529.5 1638.5,-529.5 1638.5,-499.5 1341.5,-499.5"/>
<text text-anchor="start" x="1348.5" y="-510.9" font-family="Arial" font-size="14.00" fill="#000000">api_scope    </text>
<text text-anchor="start" x="1446.507" y="-510.9" font-family="Arial" font-size="14.00" fill="#666666">[text]</text>
<polygon fill="none" stroke="#000000" points="1341.5,-469.5 1341.5,-499.5 1638.5,-499.5 1638.5,-469.5 1341.5,-469.5"/>
<text text-anchor="start" x="1348.5" y="-480.9" font-family="Arial" font-size="14.00" fill="#000000">g_id    </text>
<text text-anchor="start" x="1409.1592" y="-480.9" font-family="Arial" font-size="14.00" fill="#666666">[integer]</text>
<polygon fill="none" stroke="#000000" points="1341.5,-439.5 1341.5,-469.5 1638.5,-469.5 1638.5,-439.5 1341.5,-439.5"/>
<text text-anchor="start" x="1348.4271" y="-450.9" font-family="Arial" font-size="14.00" fill="#000000">last_token_at    </text>
<text text-anchor="start" x="1465.8885" y="-450.9" font-family="Arial" font-size="14.00" fill="#666666">[timestamp with time zone]</text>
<polygon fill="none" stroke="#000000" points="1341.5,-409.5 1341.5,-439.5 1638.5,-439.5 1638.5,-409.5 1341.5,-409.5"/>
<text text-anchor="start" x="1348.5" y="-420.9" font-family="Arial" font-size="14.00" fill="#000000">x_data    </text>
<text text-anchor="start" x="1424.7258" y="-420.9" font-family="Arial" font-size="14.00" fill="#666666">[text]</text>
</g>
<!-- public.encryption_keys&#45;&gt;public.systems -->
<g id="edge1" class="edge">
<title>public.encryption_keys:system_id&#45;&gt;public.systems:id</title>
<path fill="none" stroke="#000000" d="M1254.5785,-985.7927C1348.3535,-971.7878 1233.3409,-754.5 1341.5,-754.5"/>
<polygon fill="#000000" stroke="#000000" points="1254.4755,-985.7998 1244.1849,-982.011 1249.4877,-986.1499 1244.5,-986.5 1244.5,-986.5 1244.5,-986.5 1249.4877,-986.1499 1244.8151,-990.989 1254.4755,-985.7998 1254.4755,-985.7998"/>
<text text-anchor="start" x="764.5635" y="-996.5" font-family="Arial" font-size="10.00" fill="#000000">FOREIGN KEY (system_id) REFERENCES systems(id) ON UPDATE RESTRICT ON DELETE RESTRICT</text>
</g>
<!-- public.groups -->
<g id="node4" class="node">
<title>public.groups</title>
<polygon fill="#efefef" stroke="transparent" points="1348.5,-252.5 1348.5,-287.5 1631.5,-287.5 1631.5,-252.5 1348.5,-252.5"/>
<polygon fill="none" stroke="#000000" points="1348.5,-252.5 1348.5,-287.5 1631.5,-287.5 1631.5,-252.5 1348.5,-252.5"/>
<text text-anchor="start" x="1372.7029" y="-265.3" font-family="Arial Bold" font-size="18.00" fill="#000000">public.groups</text>
<text text-anchor="start" x="1479.7291" y="-265.3" font-family="Arial" font-size="14.00" fill="#000000">    </text>
<text text-anchor="start" x="1513.9339" y="-265.3" font-family="Arial" font-size="14.00" fill="#666666">[BASE TABLE]</text>
<polygon fill="none" stroke="#000000" points="1348.5,-222.5 1348.5,-252.5 1631.5,-252.5 1631.5,-222.5 1348.5,-222.5"/>
<text text-anchor="start" x="1355.5" y="-233.9" font-family="Arial" font-size="14.00" fill="#000000">id    </text>
<text text-anchor="start" x="1400.594" y="-233.9" font-family="Arial" font-size="14.00" fill="#666666">[integer]</text>
<polygon fill="none" stroke="#000000" points="1348.5,-192.5 1348.5,-222.5 1631.5,-222.5 1631.5,-192.5 1348.5,-192.5"/>
<text text-anchor="start" x="1355.5" y="-203.9" font-family="Arial" font-size="14.00" fill="#000000">created_at    </text>
<text text-anchor="start" x="1455.8422" y="-203.9" font-family="Arial" font-size="14.00" fill="#666666">[timestamp with time zone]</text>
<polygon fill="none" stroke="#000000" points="1348.5,-162.5 1348.5,-192.5 1631.5,-192.5 1631.5,-162.5 1348.5,-162.5"/>
<text text-anchor="start" x="1355.0344" y="-173.9" font-family="Arial" font-size="14.00" fill="#000000">updated_at    </text>
<text text-anchor="start" x="1459.2812" y="-173.9" font-family="Arial" font-size="14.00" fill="#666666">[timestamp with time zone]</text>
<polygon fill="none" stroke="#000000" points="1348.5,-132.5 1348.5,-162.5 1631.5,-162.5 1631.5,-132.5 1348.5,-132.5"/>
<text text-anchor="start" x="1355.5" y="-143.9" font-family="Arial" font-size="14.00" fill="#000000">deleted_at    </text>
<text text-anchor="start" x="1455.0708" y="-143.9" font-family="Arial" font-size="14.00" fill="#666666">[timestamp with time zone]</text>
<polygon fill="none" stroke="#000000" points="1348.5,-102.5 1348.5,-132.5 1631.5,-132.5 1631.5,-102.5 1348.5,-102.5"/>
<text text-anchor="start" x="1355.5" y="-113.9" font-family="Arial" font-size="14.00" fill="#000000">group_id    </text>
<text text-anchor="start" x="1444.1676" y="-113.9" font-family="Arial" font-size="14.00" fill="#666666">[text]</text>
<polygon fill="none" stroke="#000000" points="1348.5,-72.5 1348.5,-102.5 1631.5,-102.5 1631.5,-72.5 1348.5,-72.5"/>
<text text-anchor="start" x="1355.5" y="-83.9" font-family="Arial" font-size="14.00" fill="#000000">x_data    </text>
<text text-anchor="start" x="1431.7258" y="-83.9" font-family="Arial" font-size="14.00" fill="#666666">[text]</text>
<polygon fill="none" stroke="#000000" points="1348.5,-42.5 1348.5,-72.5 1631.5,-72.5 1631.5,-42.5 1348.5,-42.5"/>
<text text-anchor="start" x="1355.5" y="-53.9" font-family="Arial" font-size="14.00" fill="#000000">data    </text>
<text text-anchor="start" x="1416.9432" y="-53.9" font-family="Arial" font-size="14.00" fill="#666666">[jsonb]</text>
</g>
<!-- public.secrets -->
<g id="node5" class="node">
<title>public.secrets</title>
<polygon fill="#efefef" stroke="transparent" points="1348.5,-1136.5 1348.5,-1171.5 1631.5,-1171.5 1631.5,-1136.5 1348.5,-1136.5"/>
<polygon fill="none" stroke="#000000" points="1348.5,-1136.5 1348.5,-1171.5 1631.5,-1171.5 1631.5,-1136.5 1348.5,-1136.5"/>
<text text-anchor="start" x="1371.208" y="-1149.3" font-family="Arial Bold" font-size="18.00" fill="#000000">public.secrets</text>
<text text-anchor="start" x="1481.224" y="-1149.3" font-family="Arial" font-size="14.00" fill="#000000">    </text>
<text text-anchor="start" x="1515.4288" y="-1149.3" font-family="Arial" font-size="14.00" fill="#666666">[BASE TABLE]</text>
<polygon fill="none" stroke="#000000" points="1348.5,-1106.5 1348.5,-1136.5 1631.5,-1136.5 1631.5,-1106.5 1348.5,-1106.5"/>
<text text-anchor="start" x="1355.5" y="-1117.9" font-family="Arial" font-size="14.00" fill="#000000">id    </text>
<text text-anchor="start" x="1400.594" y="-1117.9" font-family="Arial" font-size="14.00" fill="#666666">[integer]</text>
<polygon fill="none" stroke="#000000" points="1348.5,-1076.5 1348.5,-1106.5 1631.5,-1106.5 1631.5,-1076.5 1348.5,-1076.5"/>
<text text-anchor="start" x="1355.5" y="-1087.9" font-family="Arial" font-size="14.00" fill="#000000">created_at    </text>
<text text-anchor="start" x="1455.8422" y="-1087.9" font-family="Arial" font-size="14.00" fill="#666666">[timestamp with time zone]</text>
<polygon fill="none" stroke="#000000" points="1348.5,-1046.5 1348.5,-1076.5 1631.5,-1076.5 1631.5,-1046.5 1348.5,-1046.5"/>
<text text-anchor="start" x="1355.0344" y="-1057.9" font-family="Arial" font-size="14.00" fill="#000000">updated_at    </text>
<text text-anchor="start" x="1459.2812" y="-1057.9" font-family="Arial" font-size="14.00" fill="#666666">[timestamp with time zone]</text>
<polygon fill="none" stroke="#000000" points="1348.5,-1016.5 1348.5,-1046.5 1631.5,-1046.5 1631.5,-1016.5 1348.5,-1016.5"/>
<text text-anchor="start" x="1355.5" y="-1027.9" font-family="Arial" font-size="14.00" fill="#000000">deleted_at    </text>
<text text-anchor="start" x="1455.0708" y="-1027.9" font-family="Arial" font-size="14.00" fill="#666666">[timestamp with time zone]</text>
<polygon fill="none" stroke="#000000" points="1348.5,-986.5 1348.5,-1016.5 1631.5,-1016.5 1631.5,-986.5 1348.5,-986.5"/>
<text text-anchor="start" x="1355.5" y="-997.9" font-family="Arial" font-size="14.00" fill="#000000">hash    </text>
<text text-anchor="start" x="1420.0526" y="-997.9" font-family="Arial" font-size="14.00" fill="#666666">[text]</text>
<polygon fill="none" stroke="#000000" points="1348.5,-956.5 1348.5,-986.5 1631.5,-986.5 1631.5,-956.5 1348.5,-956.5"/>
<text text-anchor="start" x="1355.5" y="-967.9" font-family="Arial" font-size="14.00" fill="#000000">system_id    </text>
<text text-anchor="start" x="1452.7104" y="-967.9" font-family="Arial" font-size="14.00" fill="#666666">[integer]</text>
</g>
<!-- public.secrets&#45;&gt;public.systems -->
<g id="edge2" class="edge">
<title>public.secrets:system_id&#45;&gt;public.systems:id</title>
<path fill="none" stroke="#000000" d="M1489.8398,-946.2147C1480.6018,-878.5111 1376.9824,-917.7308 1341.5,-848 1322.6541,-810.9636 1299.9444,-754.5 1341.5,-754.5"/>
<polygon fill="#000000" stroke="#000000" points="1489.8593,-946.5205 1486.0092,-956.7883 1490.1797,-951.5103 1490.5,-956.5 1490.5,-956.5 1490.5,-956.5 1490.1797,-951.5103 1494.9908,-956.2117 1489.8593,-946.5205 1489.8593,-946.5205"/>
<text text-anchor="start" x="1497.5635" y="-966.5" font-family="Arial" font-size="10.00" fill="#000000">FOREIGN KEY (system_id) REFERENCES systems(id) ON UPDATE RESTRICT ON DELETE RESTRICT</text>
</g>
<!-- public.systems&#45;&gt;public.groups -->
<g id="edge3" class="edge">
<title>public.systems:g_id&#45;&gt;public.groups:id</title>
<path fill="none" stroke="#000000" d="M1331.246,-483.747C1232.2361,-468.8366 1242.2173,-237.5 1348.5,-237.5"/>
<polygon fill="#000000" stroke="#000000" points="1331.5269,-483.7675 1341.1704,-488.9879 1336.5134,-484.1338 1341.5,-484.5 1341.5,-484.5 1341.5,-484.5 1336.5134,-484.1338 1341.8296,-480.0121 1331.5269,-483.7675 1331.5269,-483.7675"/>
<text text-anchor="start" x="893.6685" y="-494.5" font-family="Arial" font-size="10.00" fill="#000000">FOREIGN KEY (g_id) REFERENCES groups(id) ON UPDATE RESTRICT ON DELETE RESTRICT</text>
</g>
<!-- public.ips -->
<g id="node7" class="node">
<title>public.ips</title>
<polygon fill="#efefef" stroke="transparent" points="1735.5,-1136.5 1735.5,-1171.5 2018.5,-1171.5 2018.5,-1136.5 1735.5,-1136.5"/>
<polygon fill="none" stroke="#000000" points="1735.5,-1136.5 1735.5,-1171.5 2018.5,-1171.5 2018.5,-1136.5 1735.5,-1136.5"/>
<text text-anchor="start" x="1775.7112" y="-1149.3" font-family="Arial Bold" font-size="18.00" fill="#000000">public.ips</text>
<text text-anchor="start" x="1850.7208" y="-1149.3" font-family="Arial" font-size="14.00" fill="#000000">    </text>
<text text-anchor="start" x="1884.9256" y="-1149.3" font-family="Arial" font-size="14.00" fill="#666666">[BASE TABLE]</text>
<polygon fill="none" stroke="#000000" points="1735.5,-1106.5 1735.5,-1136.5 2018.5,-1136.5 2018.5,-1106.5 1735.5,-1106.5"/>
<text text-anchor="start" x="1742.5" y="-1117.9" font-family="Arial" font-size="14.00" fill="#000000">id    </text>
<text text-anchor="start" x="1787.594" y="-1117.9" font-family="Arial" font-size="14.00" fill="#666666">[integer]</text>
<polygon fill="none" stroke="#000000" points="1735.5,-1076.5 1735.5,-1106.5 2018.5,-1106.5 2018.5,-1076.5 1735.5,-1076.5"/>
<text text-anchor="start" x="1742.5" y="-1087.9" font-family="Arial" font-size="14.00" fill="#000000">created_at    </text>
<text text-anchor="start" x="1842.8422" y="-1087.9" font-family="Arial" font-size="14.00" fill="#666666">[timestamp with time zone]</text>
<polygon fill="none" stroke="#000000" points="1735.5,-1046.5 1735.5,-1076.5 2018.5,-1076.5 2018.5,-1046.5 1735.5,-1046.5"/>
<text text-anchor="start" x="1742.0344" y="-1057.9" font-family="Arial" font-size="14.00" fill="#000000">updated_at    </text>
<text text-anchor="start" x="1846.2812" y="-1057.9" font-family="Arial" font-size="14.00" fill="#666666">[timestamp with time zone]</text>
<polygon fill="none" stroke="#000000" points="1735.5,-1016.5 1735.5,-1046.5 2018.5,-1046.5 2018.5,-1016.5 1735.5,-1016.5"/>
<text text-anchor="start" x="1742.5" y="-1027.9" font-family="Arial" font-size="14.00" fill="#000000">deleted_at    </text>
<text text-anchor="start" x="1842.0708" y="-1027.9" font-family="Arial" font-size="14.00" fill="#666666">[timestamp with time zone]</text>
<polygon fill="none" stroke="#000000" points="1735.5,-986.5 1735.5,-1016.5 2018.5,-1016.5 2018.5,-986.5 1735.5,-986.5"/>
<text text-anchor="start" x="1742.5" y="-997.9" font-family="Arial" font-size="14.00" fill="#000000">address    </text>
<text text-anchor="start" x="1826.4958" y="-997.9" font-family="Arial" font-size="14.00" fill="#666666">[inet]</text>
<polygon fill="none" stroke="#000000" points="1735.5,-956.5 1735.5,-986.5 2018.5,-986.5 2018.5,-956.5 1735.5,-956.5"/>
<text text-anchor="start" x="1742.5" y="-967.9" font-family="Arial" font-size="14.00" fill="#000000">system_id    </text>
<text text-anchor="start" x="1839.7104" y="-967.9" font-family="Arial" font-size="14.00" fill="#666666">[integer]</text>
</g>
<!-- public.ips&#45;&gt;public.systems -->
<g id="edge4" class="edge">
<title>public.ips:system_id&#45;&gt;public.systems:id</title>
<path fill="none" stroke="#000000" d="M1725.4208,-970.7568C1637.414,-956.9195 1740.5306,-754.5 1638.5,-754.5"/>
<polygon fill="#000000" stroke="#000000" points="1725.5271,-970.7645 1735.169,-975.9878 1730.5135,-971.1323 1735.5,-971.5 1735.5,-971.5 1735.5,-971.5 1730.5135,-971.1323 1735.831,-967.0122 1725.5271,-970.7645 1725.5271,-970.7645"/>
<text text-anchor="start" x="1742.5635" y="-981.5" font-family="Arial" font-size="10.00" fill="#000000">FOREIGN KEY (system_id) REFERENCES systems(id) ON UPDATE RESTRICT ON DELETE RESTRICT</text>
</g>
<!-- public.client_tokens -->
<g id="node8" class="node">
<title>public.client_tokens</title>
<polygon fill="#efefef" stroke="transparent" points="2122.5,-1166.5 2122.5,-1201.5 2420.5,-1201.5 2420.5,-1166.5 2122.5,-1166.5"/>
<polygon fill="none" stroke="#000000" points="2122.5,-1166.5 2122.5,-1201.5 2420.5,-1201.5 2420.5,-1166.5 2122.5,-1166.5"/>
<text text-anchor="start" x="2129.1964" y="-1179.3" font-family="Arial Bold" font-size="18.00" fill="#000000">public.client_tokens</text>
<text text-anchor="start" x="2286.2356" y="-1179.3" font-family="Arial" font-size="14.00" fill="#000000">    </text>
<text text-anchor="start" x="2320.4404" y="-1179.3" font-family="Arial" font-size="14.00" fill="#666666">[BASE TABLE]</text>
<polygon fill="none" stroke="#000000" points="2122.5,-1136.5 2122.5,-1166.5 2420.5,-1166.5 2420.5,-1136.5 2122.5,-1136.5"/>
<text text-anchor="start" x="2129.5" y="-1147.9" font-family="Arial" font-size="14.00" fill="#000000">id    </text>
<text text-anchor="start" x="2174.594" y="-1147.9" font-family="Arial" font-size="14.00" fill="#666666">[integer]</text>
<polygon fill="none" stroke="#000000" points="2122.5,-1106.5 2122.5,-1136.5 2420.5,-1136.5 2420.5,-1106.5 2122.5,-1106.5"/>
<text text-anchor="start" x="2129.5" y="-1117.9" font-family="Arial" font-size="14.00" fill="#000000">created_at    </text>
<text text-anchor="start" x="2229.8422" y="-1117.9" font-family="Arial" font-size="14.00" fill="#666666">[timestamp with time zone]</text>
<polygon fill="none" stroke="#000000" points="2122.5,-1076.5 2122.5,-1106.5 2420.5,-1106.5 2420.5,-1076.5 2122.5,-1076.5"/>
<text text-anchor="start" x="2129.5" y="-1087.9" font-family="Arial" font-size="14.00" fill="#000000">updated_at    </text>
<text text-anchor="start" x="2233.7468" y="-1087.9" font-family="Arial" font-size="14.00" fill="#666666">[timestamp with time zone]</text>
<polygon fill="none" stroke="#000000" points="2122.5,-1046.5 2122.5,-1076.5 2420.5,-1076.5 2420.5,-1046.5 2122.5,-1046.5"/>
<text text-anchor="start" x="2129.5" y="-1057.9" font-family="Arial" font-size="14.00" fill="#000000">deleted_at    </text>
<text text-anchor="start" x="2229.0708" y="-1057.9" font-family="Arial" font-size="14.00" fill="#666666">[timestamp with time zone]</text>
<polygon fill="none" stroke="#000000" points="2122.5,-1016.5 2122.5,-1046.5 2420.5,-1046.5 2420.5,-1016.5 2122.5,-1016.5"/>
<text text-anchor="start" x="2129.5" y="-1027.9" font-family="Arial" font-size="14.00" fill="#000000">label    </text>
<text text-anchor="start" x="2193.2658" y="-1027.9" font-family="Arial" font-size="14.00" fill="#666666">[text]</text>
<polygon fill="none" stroke="#000000" points="2122.5,-986.5 2122.5,-1016.5 2420.5,-1016.5 2420.5,-986.5 2122.5,-986.5"/>
<text text-anchor="start" x="2129.5" y="-997.9" font-family="Arial" font-size="14.00" fill="#000000">uuid    </text>
<text text-anchor="start" x="2190.1592" y="-997.9" font-family="Arial" font-size="14.00" fill="#666666">[text]</text>
<polygon fill="none" stroke="#000000" points="2122.5,-956.5 2122.5,-986.5 2420.5,-986.5 2420.5,-956.5 2122.5,-956.5"/>
<text text-anchor="start" x="2129.5" y="-967.9" font-family="Arial" font-size="14.00" fill="#000000">system_id    </text>
<text text-anchor="start" x="2226.7104" y="-967.9" font-family="Arial" font-size="14.00" fill="#666666">[integer]</text>
<polygon fill="none" stroke="#000000" points="2122.5,-926.5 2122.5,-956.5 2420.5,-956.5 2420.5,-926.5 2122.5,-926.5"/>
<text text-anchor="start" x="2129.5" y="-937.9" font-family="Arial" font-size="14.00" fill="#000000">expires_at    </text>
<text text-anchor="start" x="2228.2756" y="-937.9" font-family="Arial" font-size="14.00" fill="#666666">[timestamp with time zone]</text>
</g>
<!-- public.root_keys -->
<g id="node9" class="node">
<title>public.root_keys</title>
<polygon fill="#efefef" stroke="transparent" points="2525.5,-1166.5 2525.5,-1201.5 2808.5,-1201.5 2808.5,-1166.5 2525.5,-1166.5"/>
<polygon fill="none" stroke="#000000" points="2525.5,-1166.5 2525.5,-1201.5 2808.5,-1201.5 2808.5,-1166.5 2525.5,-1166.5"/>
<text text-anchor="start" x="2538.2018" y="-1179.3" font-family="Arial Bold" font-size="18.00" fill="#000000">public.root_keys</text>
<text text-anchor="start" x="2668.2302" y="-1179.3" font-family="Arial" font-size="14.00" fill="#000000">    </text>
<text text-anchor="start" x="2702.435" y="-1179.3" font-family="Arial" font-size="14.00" fill="#666666">[BASE TABLE]</text>
<polygon fill="none" stroke="#000000" points="2525.5,-1136.5 2525.5,-1166.5 2808.5,-1166.5 2808.5,-1136.5 2525.5,-1136.5"/>
<text text-anchor="start" x="2532.5" y="-1147.9" font-family="Arial" font-size="14.00" fill="#000000">id    </text>
<text text-anchor="start" x="2577.594" y="-1147.9" font-family="Arial" font-size="14.00" fill="#666666">[integer]</text>
<polygon fill="none" stroke="#000000" points="2525.5,-1106.5 2525.5,-1136.5 2808.5,-1136.5 2808.5,-1106.5 2525.5,-1106.5"/>
<text text-anchor="start" x="2532.5" y="-1117.9" font-family="Arial" font-size="14.00" fill="#000000">created_at    </text>
<text text-anchor="start" x="2632.8422" y="-1117.9" font-family="Arial" font-size="14.00" fill="#666666">[timestamp with time zone]</text>
<polygon fill="none" stroke="#000000" points="2525.5,-1076.5 2525.5,-1106.5 2808.5,-1106.5 2808.5,-1076.5 2525.5,-1076.5"/>
<text text-anchor="start" x="2532.0344" y="-1087.9" font-family="Arial" font-size="14.00" fill="#000000">updated_at    </text>
<text text-anchor="start" x="2636.2812" y="-1087.9" font-family="Arial" font-size="14.00" fill="#666666">[timestamp with time zone]</text>
<polygon fill="none" stroke="#000000" points="2525.5,-1046.5 2525.5,-1076.5 2808.5,-1076.5 2808.5,-1046.5 2525.5,-1046.5"/>
<text text-anchor="start" x="2532.5" y="-1057.9" font-family="Arial" font-size="14.00" fill="#000000">deleted_at    </text>
<text text-anchor="start" x="2632.0708" y="-1057.9" font-family="Arial" font-size="14.00" fill="#666666">[timestamp with time zone]</text>
<polygon fill="none" stroke="#000000" points="2525.5,-1016.5 2525.5,-1046.5 2808.5,-1046.5 2808.5,-1016.5 2525.5,-1016.5"/>
<text text-anchor="start" x="2532.5" y="-1027.9" font-family="Arial" font-size="14.00" fill="#000000">expires_at    </text>
<text text-anchor="start" x="2631.2756" y="-1027.9" font-family="Arial" font-size="14.00" fill="#666666">[timestamp with time zone]</text>
<polygon fill="none" stroke="#000000" points="2525.5,-986.5 2525.5,-1016.5 2808.5,-1016.5 2808.5,-986.5 2525.5,-986.5"/>
<text text-anchor="start" x="2532.5" y="-997.9" font-family="Arial" font-size="14.00" fill="#000000">uuid    </text>
<text text-anchor="start" x="2593.1592" y="-997.9" font-family="Arial" font-size="14.00" fill="#666666">[text]</text>
<polygon fill="none" stroke="#000000" points="2525.5,-956.5 2525.5,-986.5 2808.5,-986.5 2808.5,-956.5 2525.5,-956.5"/>
<text text-anchor="start" x="2532.5" y="-967.9" font-family="Arial" font-size="14.00" fill="#000000">key    </text>
<text text-anchor="start" x="2588.4874" y="-967.9" font-family="Arial" font-size="14.00" fill="#666666">[text]</text>
<polygon fill="none" stroke="#000000" points="2525.5,-926.5 2525.5,-956.5 2808.5,-956.5 2808.5,-926.5 2525.5,-926.5"/>
<text text-anchor="start" x="2532.5" y="-937.9" font-family="Arial" font-size="14.00" fill="#000000">system_id    </text>
<text text-anchor="start" x="2629.7104" y="-937.9" font-family="Arial" font-size="14.00" fill="#666666">[integer]</text>
</g>
</g>
</svg>
